<?xml version="1.0" encoding="UTF-8" standalone="no"?>
<!-- Created with Inkscape (http://www.inkscape.org/) -->

<svg
   xmlns:dc="http://purl.org/dc/elements/1.1/"
   xmlns:cc="http://creativecommons.org/ns#"
   xmlns:rdf="http://www.w3.org/1999/02/22-rdf-syntax-ns#"
   xmlns:svg="http://www.w3.org/2000/svg"
   xmlns="http://www.w3.org/2000/svg"
   xmlns:sodipodi="http://sodipodi.sourceforge.net/DTD/sodipodi-0.dtd"
   xmlns:inkscape="http://www.inkscape.org/namespaces/inkscape"
   width="712.64362"
   height="345.70892"
   id="svg3330"
   version="1.1"
   inkscape:version="0.48.2 r9819"
   sodipodi:docname="Nouveau document 3">
  <defs
     id="defs3332">
    <clipPath
       clipPathUnits="userSpaceOnUse"
       id="clipPath96">
      <path
         inkscape:connector-curvature="0"
         d="m 0,841.89 595.28,0 L 595.28,0 0,0 0,841.89 z"
         id="path98" />
    </clipPath>
  </defs>
  <sodipodi:namedview
     id="base"
     pagecolor="#ffffff"
     bordercolor="#666666"
     borderopacity="1.0"
     inkscape:pageopacity="0.0"
     inkscape:pageshadow="2"
     inkscape:zoom="0.35"
     inkscape:cx="347.03608"
     inkscape:cy="-168.57412"
     inkscape:document-units="px"
     inkscape:current-layer="layer1"
     showgrid="false"
     units="mm"
     fit-margin-top="5"
     fit-margin-right="5"
     fit-margin-left="5"
     fit-margin-bottom="5"
     inkscape:window-width="1920"
     inkscape:window-height="1018"
     inkscape:window-x="-8"
     inkscape:window-y="-8"
     inkscape:window-maximized="1" />
  <metadata
     id="metadata3335">
    <rdf:RDF>
      <cc:Work
         rdf:about="">
        <dc:format>image/svg+xml</dc:format>
        <dc:type
           rdf:resource="http://purl.org/dc/dcmitype/StillImage" />
        <dc:title></dc:title>
      </cc:Work>
    </rdf:RDF>
  </metadata>
  <g
     inkscape:label="Calque 1"
     inkscape:groupmode="layer"
     id="layer1"
     transform="translate(-27.96392,-18.079148)">
    <g
       transform="matrix(1.5926983,0,0,-2.2037873,-89.222843,1117.3854)"
       id="g92">
      <g
         id="g94"
         clip-path="url(#clipPath96)">
        <g
           id="g100"
           transform="translate(150.5459,458.5688)">
          <path
             inkscape:connector-curvature="0"
             d="m 0,0 -3.685,-1.047 1.172,32.453 2.169,0.812 L 0,0 z"
             style="fill:#006aa8;fill-opacity:1;fill-rule:nonzero;stroke:none"
             id="path102" />
        </g>
        <g
           id="g104"
           transform="translate(113.5107,429.499)">
          <path
             inkscape:connector-curvature="0"
             d="m 0,0 c 0,0 25.356,10.74 49.496,5.508 l 14,8.953 C 63.496,14.461 20.833,19.431 0,0"
             style="fill:#006aa8;fill-opacity:1;fill-rule:nonzero;stroke:none"
             id="path106" />
        </g>
        <g
           id="g108"
           transform="translate(129.5098,445.1914)">
          <path
             inkscape:connector-curvature="0"
             d="m 0,0 c 0,0 14.554,6.163 28.403,3.164 l 8.035,5.137 C 36.438,8.301 11.962,11.15 0,0"
             style="fill:#006aa8;fill-opacity:1;fill-rule:nonzero;stroke:none"
             id="path110" />
        </g>
        <path
           inkscape:connector-curvature="0"
           d="m 440.065,361.848 -299.657,0 0,1.635 299.657,0 0,-1.635 z"
           style="fill:#e4312c;fill-opacity:1;fill-rule:nonzero;stroke:none"
           id="path112" />
        <g
           id="g114"
           transform="translate(145.6196,358.2168)">
          <path
             inkscape:connector-curvature="0"
             d="m 0,0 -1.6,0 -1.355,-1.901 1.003,0 L 0,0 z"
             style="fill:#006aa8;fill-opacity:1;fill-rule:nonzero;stroke:none"
             id="path116" />
        </g>
        <g
           id="g118"
           transform="translate(312.2119,358.2168)">
          <path
             inkscape:connector-curvature="0"
             d="m 0,0 -1.604,0 -1.348,-1.901 0.998,0 L 0,0 z"
             style="fill:#006aa8;fill-opacity:1;fill-rule:nonzero;stroke:none"
             id="path120" />
        </g>
        <g
           id="g122"
           transform="translate(142.0317,352.2998)">
          <path
             inkscape:connector-curvature="0"
             d="m 0,0 2.919,0 0,1.075 -2.919,0 0,0.998 5.005,0 0,1.082 -6.662,0 0,-5.46 6.72,0 0,1.182 L 0,-1.123 0,0 z"
             style="fill:#006aa8;fill-opacity:1;fill-rule:nonzero;stroke:none"
             id="path124" />
        </g>
        <g
           id="g126"
           transform="translate(156.2402,355.1699)">
          <path
             inkscape:connector-curvature="0"
             d="m 0,0 c -0.234,0.19 -0.66,0.285 -1.301,0.285 l -3.778,0 C -5.725,0.285 -6.149,0.19 -6.384,0 -6.622,-0.194 -6.738,-0.553 -6.738,-1.055 l 0,-2.78 c 0,-0.502 0.116,-0.86 0.354,-1.055 0.235,-0.194 0.663,-0.285 1.305,-0.285 l 3.778,0 c 0.641,0 1.067,0.091 1.301,0.285 0.238,0.195 0.366,0.553 0.366,1.055 l 0,0.702 -1.658,0.283 0,-1.143 -3.791,0 0,3.146 3.791,0 0,-1.005 1.658,0.217 0,0.58 C 0.366,-0.546 0.238,-0.194 0,0"
             style="fill:#006aa8;fill-opacity:1;fill-rule:nonzero;stroke:none"
             id="path128" />
        </g>
        <path
           inkscape:connector-curvature="0"
           d="m 165.655,351.177 -4.674,0 0,3.146 4.674,0 0,-3.146 z m 1.293,3.993 c -0.235,0.19 -0.66,0.285 -1.304,0.285 l -4.663,0 c -0.64,0 -1.064,-0.095 -1.299,-0.285 -0.238,-0.194 -0.355,-0.553 -0.355,-1.055 l 0,-2.78 c 0,-0.502 0.117,-0.86 0.355,-1.055 0.235,-0.194 0.659,-0.285 1.299,-0.285 l 4.663,0 c 0.642,0 1.069,0.091 1.304,0.285 0.234,0.195 0.355,0.553 0.355,1.055 l 0,2.78 c 0,0.502 -0.121,0.861 -0.355,1.055"
           style="fill:#006aa8;fill-opacity:1;fill-rule:nonzero;stroke:none"
           id="path130" />
        <g
           id="g132"
           transform="translate(171.8804,355.4551)">
          <path
             inkscape:connector-curvature="0"
             d="m 0,0 -1.655,0 0,-5.46 6.405,0 0,1.182 -4.75,0 L 0,0 z"
             style="fill:#006aa8;fill-opacity:1;fill-rule:nonzero;stroke:none"
             id="path134" />
        </g>
        <g
           id="g136"
           transform="translate(180.2598,352.2998)">
          <path
             inkscape:connector-curvature="0"
             d="m 0,0 2.922,0 0,1.075 -2.922,0 0,0.998 5.006,0 0,1.082 -6.661,0 0,-5.46 6.722,0 0,1.182 L 0,-1.123 0,0 z"
             style="fill:#006aa8;fill-opacity:1;fill-rule:nonzero;stroke:none"
             id="path138" />
        </g>
        <g
           id="g140"
           transform="translate(198.7192,352.5918)">
          <path
             inkscape:connector-curvature="0"
             d="m 0,0 c 0,-0.065 0,-0.17 0.015,-0.288 0.003,-0.09 0.012,-0.217 0.03,-0.394 -0.055,0.043 -0.103,0.088 -0.153,0.119 -0.118,0.101 -0.253,0.194 -0.405,0.302 l -4.456,3.107 -0.025,0.017 -1.125,0 0,-5.46 1.506,0 0,2.948 c 0,0.09 0,0.208 -0.015,0.376 C -4.631,0.804 -4.639,0.881 -4.646,0.953 -4.628,0.937 -4.61,0.917 -4.587,0.9 -4.5,0.844 -4.405,0.768 -4.292,0.677 l 4.644,-3.256 0.03,-0.018 1.128,0 0,5.46 L 0,2.863 0,0 z"
             style="fill:#006aa8;fill-opacity:1;fill-rule:nonzero;stroke:none"
             id="path142" />
        </g>
        <g
           id="g144"
           transform="translate(207.5923,352.293)">
          <path
             inkscape:connector-curvature="0"
             d="M 0,0 -2.437,0 -1.2,1.881 0,0 z m -1.904,3.162 -3.709,-5.46 1.695,0 0.73,1.154 3.914,0 0.761,-1.154 1.879,0 -3.753,5.46 -1.517,0 z"
             style="fill:#006aa8;fill-opacity:1;fill-rule:nonzero;stroke:none"
             id="path146" />
        </g>
        <g
           id="g148"
           transform="translate(210.4648,354.3232)">
          <path
             inkscape:connector-curvature="0"
             d="m 0,0 2.903,0 0,-4.328 1.66,0 0,4.328 2.911,0 0,1.132 L 0,1.132 0,0 z"
             style="fill:#006aa8;fill-opacity:1;fill-rule:nonzero;stroke:none"
             id="path150" />
        </g>
        <path
           inkscape:connector-curvature="0"
           d="m 219.564,349.995 1.656,0 0,5.46 -1.656,0 0,-5.46 z"
           style="fill:#006aa8;fill-opacity:1;fill-rule:nonzero;stroke:none"
           id="path152" />
        <path
           inkscape:connector-curvature="0"
           d="m 230.467,351.177 -4.673,0 0,3.146 4.673,0 0,-3.146 z m 1.296,3.993 c -0.234,0.19 -0.663,0.285 -1.308,0.285 l -4.658,0 c -0.637,0 -1.069,-0.095 -1.299,-0.285 -0.242,-0.194 -0.359,-0.553 -0.359,-1.055 l 0,-2.78 c 0,-0.502 0.117,-0.86 0.359,-1.055 0.234,-0.194 0.662,-0.285 1.299,-0.285 l 4.658,0 c 0.645,0 1.074,0.091 1.308,0.285 0.238,0.195 0.355,0.553 0.355,1.055 l 0,2.78 c 0,0.502 -0.117,0.861 -0.355,1.055"
           style="fill:#006aa8;fill-opacity:1;fill-rule:nonzero;stroke:none"
           id="path154" />
        <g
           id="g156"
           transform="translate(241.1455,352.5918)">
          <path
             inkscape:connector-curvature="0"
             d="m 0,0 c 0,-0.065 0.003,-0.17 0.015,-0.288 0.003,-0.09 0.013,-0.217 0.028,-0.394 -0.051,0.043 -0.099,0.088 -0.15,0.119 -0.114,0.094 -0.248,0.194 -0.407,0.302 l -4.456,3.107 -0.026,0.017 -1.123,0 0,-5.46 1.504,0 0,2.948 c 0,0.09 0,0.214 -0.011,0.376 -0.007,0.077 -0.01,0.154 -0.021,0.226 C -4.626,0.937 -4.608,0.917 -4.585,0.9 -4.5,0.844 -4.402,0.768 -4.292,0.677 l 4.654,-3.256 0.018,-0.018 1.129,0 0,5.46 L 0,2.863 0,0 z"
             style="fill:#006aa8;fill-opacity:1;fill-rule:nonzero;stroke:none"
             id="path158" />
        </g>
        <g
           id="g160"
           transform="translate(250.0215,352.293)">
          <path
             inkscape:connector-curvature="0"
             d="M 0,0 -2.439,0 -1.204,1.881 0,0 z m -1.907,3.162 -3.706,-5.46 1.691,0 0.733,1.154 3.915,0 0.761,-1.154 1.876,0 -3.755,5.46 -1.515,0 z"
             style="fill:#006aa8;fill-opacity:1;fill-rule:nonzero;stroke:none"
             id="path162" />
        </g>
        <g
           id="g164"
           transform="translate(256.8105,355.4551)">
          <path
             inkscape:connector-curvature="0"
             d="m 0,0 -1.65,0 0,-5.46 6.404,0 0,1.182 L 0,-4.278 0,0 z"
             style="fill:#006aa8;fill-opacity:1;fill-rule:nonzero;stroke:none"
             id="path166" />
        </g>
        <g
           id="g168"
           transform="translate(265.1909,352.2998)">
          <path
             inkscape:connector-curvature="0"
             d="m 0,0 2.921,0 0,1.075 -2.921,0 0,0.998 5.01,0 0,1.082 -6.662,0 0,-5.46 6.719,0 0,1.182 L 0,-1.123 0,0 z"
             style="fill:#006aa8;fill-opacity:1;fill-rule:nonzero;stroke:none"
             id="path170" />
        </g>
        <g
           id="g172"
           transform="translate(284.2373,353.1191)">
          <path
             inkscape:connector-curvature="0"
             d="m 0,0 c -0.239,0.19 -0.667,0.285 -1.315,0.285 l -3.852,0 0,0.946 3.962,0 0,-0.625 1.483,0.295 0,0.186 c 0,0.457 -0.129,0.787 -0.378,0.973 -0.245,0.181 -0.662,0.276 -1.284,0.276 l -3.593,0 c -0.645,0 -1.07,-0.095 -1.305,-0.285 C -6.519,1.856 -6.636,1.505 -6.636,0.996 l 0,-0.587 c 0,-0.504 0.117,-0.857 0.354,-1.048 0.235,-0.201 0.66,-0.292 1.305,-0.292 l 3.852,0 0,-1.011 -4.289,0 0,0.635 -1.482,-0.253 0,-0.224 c 0,-0.502 0.121,-0.861 0.359,-1.055 0.238,-0.194 0.666,-0.285 1.315,-0.285 l 3.907,0 c 0.648,0 1.076,0.091 1.315,0.285 0.237,0.194 0.358,0.553 0.358,1.055 l 0,0.729 C 0.358,-0.553 0.237,-0.199 0,0"
             style="fill:#006aa8;fill-opacity:1;fill-rule:nonzero;stroke:none"
             id="path174" />
        </g>
        <g
           id="g176"
           transform="translate(293.1382,351.1768)">
          <path
             inkscape:connector-curvature="0"
             d="m 0,0 -4.012,0 0,4.278 -1.658,0 0,-4.12 c 0,-0.502 0.126,-0.86 0.36,-1.054 0.237,-0.195 0.665,-0.286 1.301,-0.286 l 4.002,0 c 0.642,0 1.067,0.091 1.304,0.286 0.239,0.194 0.352,0.534 0.352,1.054 l 0,4.12 L 0,4.278 0,0 z"
             style="fill:#006aa8;fill-opacity:1;fill-rule:nonzero;stroke:none"
             id="path178" />
        </g>
        <g
           id="g180"
           transform="translate(299.4785,354.3574)">
          <path
             inkscape:connector-curvature="0"
             d="M 0,0 3.221,0 C 3.515,0 3.644,-0.045 3.7,-0.075 3.764,-0.12 3.793,-0.201 3.793,-0.326 l 0,-0.559 C 3.793,-1.003 3.764,-1.089 3.7,-1.139 3.644,-1.173 3.515,-1.216 3.221,-1.216 L 0,-1.216 0,0 z M 5.022,0.835 C 4.782,1.01 4.394,1.098 3.877,1.098 l -5.506,0 0,-5.46 1.629,0 0,2.05 3.877,0 c 0.517,0 0.905,0.093 1.145,0.268 0.251,0.176 0.381,0.462 0.381,0.844 l 0,1.184 c 0,0.38 -0.13,0.674 -0.381,0.851"
             style="fill:#006aa8;fill-opacity:1;fill-rule:nonzero;stroke:none"
             id="path182" />
        </g>
        <g
           id="g184"
           transform="translate(308.6162,352.2998)">
          <path
             inkscape:connector-curvature="0"
             d="m 0,0 2.925,0 0,1.075 -2.925,0 0,0.998 5.008,0 0,1.082 -6.664,0 0,-5.46 6.725,0 0,1.182 L 0,-1.123 0,0 z"
             style="fill:#006aa8;fill-opacity:1;fill-rule:nonzero;stroke:none"
             id="path186" />
        </g>
        <g
           id="g188"
           transform="translate(317.8555,354.3574)">
          <path
             inkscape:connector-curvature="0"
             d="M 0,0 3.221,0 C 3.528,0 3.651,-0.052 3.696,-0.075 3.76,-0.12 3.794,-0.201 3.794,-0.326 l 0,-0.627 C 3.794,-1.08 3.76,-1.166 3.696,-1.207 3.651,-1.229 3.528,-1.283 3.221,-1.283 L 0,-1.283 0,0 z m 3.873,-2.37 c 0.525,0 0.905,0.086 1.146,0.26 0.252,0.183 0.379,0.468 0.379,0.853 l 0,1.241 c 0,0.38 -0.127,0.674 -0.379,0.851 C 4.778,1.01 4.394,1.098 3.873,1.098 l -5.506,0 0,-5.46 1.633,0 0,1.992 1.274,0 2.553,-1.992 2.441,0 -2.925,1.992 0.53,0 z"
             style="fill:#006aa8;fill-opacity:1;fill-rule:nonzero;stroke:none"
             id="path190" />
        </g>
        <path
           inkscape:connector-curvature="0"
           d="m 326.059,349.995 1.659,0 0,5.46 -1.659,0 0,-5.46 z"
           style="fill:#006aa8;fill-opacity:1;fill-rule:nonzero;stroke:none"
           id="path192" />
        <g
           id="g194"
           transform="translate(332.4219,352.2998)">
          <path
             inkscape:connector-curvature="0"
             d="m 0,0 2.923,0 0,1.075 -2.923,0 0,0.998 5.008,0 0,1.082 -6.664,0 0,-5.46 6.72,0 0,1.182 L 0,-1.123 0,0 z"
             style="fill:#006aa8;fill-opacity:1;fill-rule:nonzero;stroke:none"
             id="path196" />
        </g>
        <g
           id="g198"
           transform="translate(345.6924,351.1768)">
          <path
             inkscape:connector-curvature="0"
             d="m 0,0 -4.012,0 0,4.278 -1.661,0 0,-4.12 c 0,-0.502 0.122,-0.86 0.366,-1.054 0.236,-0.195 0.661,-0.286 1.3,-0.286 l 4.002,0 c 0.637,0 1.065,0.091 1.305,0.286 0.23,0.194 0.352,0.552 0.352,1.054 l 0,4.12 L 0,4.278 0,0 z"
             style="fill:#006aa8;fill-opacity:1;fill-rule:nonzero;stroke:none"
             id="path200" />
        </g>
        <g
           id="g202"
           transform="translate(352.0313,354.3574)">
          <path
             inkscape:connector-curvature="0"
             d="m 0,0 3.223,0 c 0.295,0 0.425,-0.045 0.473,-0.075 0.071,-0.045 0.1,-0.126 0.1,-0.251 l 0,-0.627 C 3.796,-1.08 3.767,-1.166 3.703,-1.207 3.648,-1.238 3.518,-1.283 3.223,-1.283 L 0,-1.283 0,0 z m 3.884,-2.37 c 0.525,0 0.896,0.086 1.141,0.26 0.249,0.183 0.382,0.468 0.382,0.853 l 0,1.241 c 0,0.38 -0.133,0.674 -0.382,0.851 C 4.78,1.01 4.396,1.098 3.884,1.098 l -5.51,0 0,-5.46 1.626,0 0,1.992 1.276,0 2.551,-1.992 2.444,0 -2.918,1.992 0.531,0 z"
             style="fill:#006aa8;fill-opacity:1;fill-rule:nonzero;stroke:none"
             id="path204" />
        </g>
        <g
           id="g206"
           transform="translate(361.8965,352.2998)">
          <path
             inkscape:connector-curvature="0"
             d="m 0,0 2.925,0 0,1.075 -2.925,0 0,0.998 5.005,0 0,1.082 -6.667,0 0,-5.46 6.724,0 0,1.182 L 0,-1.123 0,0 z"
             style="fill:#006aa8;fill-opacity:1;fill-rule:nonzero;stroke:none"
             id="path208" />
        </g>
        <g
           id="g210"
           transform="translate(378.499,352.3037)">
          <path
             inkscape:connector-curvature="0"
             d="m 0,0 -2.941,3.151 -1.325,0 0,-5.46 1.377,0 0,3.36 c 0,0.05 0,0.118 -0.005,0.18 0.059,-0.083 0.123,-0.16 0.191,-0.225 l 2.408,-2.676 0.371,0 2.413,2.662 c 0.05,0.064 0.1,0.131 0.159,0.213 C 2.642,1.148 2.642,1.092 2.642,1.051 l 0,-3.36 1.55,0 0,5.46 -1.317,0 L 0,0 z"
             style="fill:#006aa8;fill-opacity:1;fill-rule:nonzero;stroke:none"
             id="path212" />
        </g>
        <g
           id="g214"
           transform="translate(389.9258,352.293)">
          <path
             inkscape:connector-curvature="0"
             d="M 0,0 -2.44,0 -1.199,1.881 0,0 z m -1.906,3.162 -3.71,-5.46 1.691,0 0.737,1.154 3.913,0 0.76,-1.154 1.874,0 -3.753,5.46 -1.512,0 z"
             style="fill:#006aa8;fill-opacity:1;fill-rule:nonzero;stroke:none"
             id="path216" />
        </g>
        <g
           id="g218"
           transform="translate(396.6943,354.3574)">
          <path
             inkscape:connector-curvature="0"
             d="M 0,0 3.22,0 C 3.527,0 3.649,-0.052 3.692,-0.075 3.756,-0.12 3.79,-0.201 3.79,-0.326 l 0,-0.627 C 3.79,-1.08 3.756,-1.166 3.692,-1.207 3.649,-1.229 3.527,-1.283 3.22,-1.283 L 0,-1.283 0,0 z m 3.871,-2.37 c 0.527,0 0.901,0.086 1.144,0.26 0.256,0.183 0.38,0.468 0.38,0.853 l 0,1.241 c 0,0.38 -0.124,0.674 -0.38,0.851 C 4.776,1.01 4.392,1.098 3.871,1.098 l -5.505,0 0,-5.46 1.634,0 0,1.992 1.268,0 2.553,-1.992 2.446,0 -2.925,1.992 0.529,0 z"
             style="fill:#006aa8;fill-opacity:1;fill-rule:nonzero;stroke:none"
             id="path220" />
        </g>
        <path
           inkscape:connector-curvature="0"
           d="m 404.894,349.995 1.653,0 0,5.46 -1.653,0 0,-5.46 z"
           style="fill:#006aa8;fill-opacity:1;fill-rule:nonzero;stroke:none"
           id="path222" />
        <g
           id="g224"
           transform="translate(408.1699,354.3232)">
          <path
             inkscape:connector-curvature="0"
             d="m 0,0 2.908,0 0,-4.328 1.655,0 0,4.328 2.914,0 0,1.132 L 0,1.132 0,0 z"
             style="fill:#006aa8;fill-opacity:1;fill-rule:nonzero;stroke:none"
             id="path226" />
        </g>
        <path
           inkscape:connector-curvature="0"
           d="m 417.266,349.995 1.657,0 0,5.46 -1.657,0 0,-5.46 z"
           style="fill:#006aa8;fill-opacity:1;fill-rule:nonzero;stroke:none"
           id="path228" />
        <g
           id="g230"
           transform="translate(426.2275,352.3037)">
          <path
             inkscape:connector-curvature="0"
             d="m 0,0 -2.943,3.151 -1.322,0 0,-5.46 1.376,0 0,3.36 c 0,0.058 0,0.118 -0.005,0.18 0.055,-0.083 0.119,-0.16 0.182,-0.225 l 2.418,-2.676 0.371,0 2.404,2.662 C 2.535,1.056 2.59,1.123 2.648,1.205 2.644,1.148 2.64,1.092 2.64,1.051 l 0,-3.36 1.548,0 0,5.46 -1.313,0 L 0,0 z"
             style="fill:#006aa8;fill-opacity:1;fill-rule:nonzero;stroke:none"
             id="path232" />
        </g>
        <g
           id="g234"
           transform="translate(434.9883,351.1768)">
          <path
             inkscape:connector-curvature="0"
             d="m 0,0 0,1.123 2.92,0 0,1.075 -2.92,0 0,0.998 5.01,0 0,1.082 -6.667,0 0,-5.46 6.723,0 L 5.066,0 0,0 z"
             style="fill:#006aa8;fill-opacity:1;fill-rule:nonzero;stroke:none"
             id="path236" />
        </g>
        <g
           id="g238"
           transform="translate(200.6582,405.9707)">
          <path
             inkscape:connector-curvature="0"
             d="m 0,0 -1.544,0 -57.144,0 -1.547,0 0,-1.542 0,-32.962 0,-1.539 1.547,0 57.676,0 1.542,0 0,1.539 0,6.223 0,1.544 -1.542,0 -43.142,0 0,5.089 24.231,0 1.545,0 0,1.542 0,5.591 0,1.541 -1.545,0 -24.231,0 0,4.295 42.61,0 1.544,0 0,1.546 0,5.591 L 0,0 z m -1.544,-1.542 0,-5.591 -44.148,0 0,-7.382 25.769,0 0,-5.591 -25.769,0 0,-8.175 44.68,0 0,-6.223 -57.676,0 0,32.962 57.144,0 z"
             style="fill:#006aa8;fill-opacity:1;fill-rule:nonzero;stroke:none"
             id="path240" />
        </g>
        <g
           id="g242"
           transform="translate(340.0557,405.9707)">
          <path
             inkscape:connector-curvature="0"
             d="m 0,0 -31.634,0 c -5.75,0 -9.593,-0.622 -11.744,-1.877 -1.225,-0.71 -2.154,-1.742 -2.755,-3.047 -0.571,-1.222 -0.86,-2.712 -0.86,-4.43 l 0,-3.633 c 0,-1.713 0.289,-3.205 0.86,-4.423 0.601,-1.318 1.53,-2.337 2.755,-3.057 2.156,-1.256 6.001,-1.865 11.744,-1.865 l 33.205,0 0,-4.405 -36.306,0 0,1.447 0,1.749 -1.73,-0.217 -11.444,-1.424 -1.354,-0.165 0.003,-1.356 c 0,-1.714 0.293,-3.205 0.868,-4.43 0.607,-1.306 1.545,-2.323 2.772,-3.048 2.184,-1.254 6.051,-1.862 11.827,-1.862 l 34.42,0 c 5.784,0 9.65,0.608 11.819,1.862 1.236,0.725 2.171,1.742 2.784,3.048 0.573,1.232 0.863,2.721 0.863,4.437 l 0,4.527 c 0,1.728 -0.29,3.206 -0.863,4.428 -0.616,1.308 -1.552,2.332 -2.791,3.034 -2.17,1.235 -6.038,1.838 -11.812,1.838 l -33.198,0 0,4.034 33.399,0 0,-1.554 0,-1.779 1.757,0.247 11.438,1.587 1.334,0.19 0,1.335 0,0.041 c 0,1.599 -0.317,3 -0.925,4.153 -0.641,1.221 -1.61,2.173 -2.873,2.847 C 9.326,-0.582 5.551,0 0,0 m -47.715,-26.696 0,-0.007 0,0.007 M 0,-1.542 c 5.238,0 8.847,-0.529 10.834,-1.582 1.985,-1.062 2.978,-2.936 2.978,-5.644 l 0,-0.041 -11.44,-1.58 0,3.098 -36.487,0 0,-7.115 34.742,0 c 5.453,0 9.139,-0.555 11.05,-1.642 1.924,-1.089 2.875,-3.133 2.875,-6.121 l 0,-4.527 c 0,-2.991 -0.951,-5.039 -2.875,-6.144 -1.911,-1.111 -5.597,-1.664 -11.05,-1.664 l -34.42,0 c -5.455,0 -9.135,0.553 -11.05,1.664 -1.916,1.105 -2.872,3.149 -2.872,6.137 l 11.436,1.413 0,-2.991 39.394,0 0,7.489 -34.749,0 c -5.417,0 -9.073,0.552 -10.972,1.666 -1.897,1.1 -2.846,3.15 -2.846,6.139 l 0,3.633 c 0,2.989 0.949,5.038 2.846,6.146 1.899,1.105 5.555,1.666 10.972,1.666 l 31.634,0"
             style="fill:#006aa8;fill-opacity:1;fill-rule:nonzero;stroke:none"
             id="path244" />
        </g>
        <g
           id="g246"
           transform="translate(222.3223,405.8867)">
          <path
             inkscape:connector-curvature="0"
             d="m 0,0 -0.365,0 -8.845,0 -1.542,0 0,-1.541 0,-32.809 0,-1.535 1.542,0 11.535,0 1.542,0 0,1.535 0,20.451 42.88,-21.895 0.331,-0.165 0.367,0 8.672,0 1.539,0 0,1.539 0,32.826 0,1.542 -1.539,0 -11.114,0 -1.542,0 0,-1.542 0,-20.391 L 0.33,-0.172 0,0 z m -0.365,-1.541 45.368,-22.952 0,22.899 11.114,0 0,-32.826 -8.672,0 -45.12,23.043 0,-22.973 -11.535,0 0,32.809 8.845,0 z"
             style="fill:#006aa8;fill-opacity:1;fill-rule:nonzero;stroke:none"
             id="path248" />
        </g>
        <g
           id="g250"
           transform="translate(402.7891,375.8242)">
          <path
             inkscape:connector-curvature="0"
             d="m 0,0 -0.647,-0.525 -2.537,0 -23.094,18.323 0,-22.14 -10.182,0 0,32.8 10.164,0 L -0.92,8.299 0,9.008 0,0 z m -318.088,-5.723 c 7.068,15.48 66.426,99.493 355.442,45.692 L -0.92,10.183 l -0.007,-0.012 -24.867,19.828 -12.16,0 0,-34.341 0,-1.489 1.494,0 10.182,0 1.494,0 0,1.489 0,19.052 21.078,-16.725 4.323,0 106.492,86.438 c 0,0 -374.776,20.336 -425.197,-90.146"
             style="fill:#006aa8;fill-opacity:1;fill-rule:nonzero;stroke:none"
             id="path252" />
        </g>
        <g
           id="g254"
           transform="translate(424.9375,387.376)">
          <path
             inkscape:connector-curvature="0"
             d="m 0,0 0,-17.448 15.099,0 0,29.58 L 0,0 z"
             style="fill:#006aa8;fill-opacity:1;fill-rule:nonzero;stroke:none"
             id="path256" />
        </g>
      </g>
    </g>
  </g>
</svg>
